<?xml version="1.0" encoding="iso-8859-1"?>
<!DOCTYPE svg PUBLIC "-//W3C//DTD SVG 1.1//EN" "http://www.w3.org/Graphics/SVG/1.1/DTD/svg11.dtd">
<svg 
 version="1.1" xmlns="http://www.w3.org/2000/svg" xmlns:xlink="http://www.w3.org/1999/xlink" x="0px" y="0px" width="512px"
	 height="512px" viewBox="0 0 512 512" enable-background="new 0 0 512 512" xml:space="preserve"
><g id="1b1c9b208ed950244c86edd4d203341c"><g></g><path display="inline" d="M373.923,118.423H138.077c-32.429,0-58.962,26.533-58.962,58.962v275.153
		c0,32.43,26.533,58.962,58.962,58.962h235.846c32.429,0,58.962-26.532,58.962-58.962V177.385
		C432.885,144.956,406.352,118.423,373.923,118.423z M177.385,452.538h-39.308V177.385h39.308V452.538z M275.654,452.538h-39.308
		V177.385h39.308V452.538z M373.923,452.538h-39.308V177.385h39.308V452.538z M452.538,59.461v19.654
		c0,10.81-8.844,19.654-19.653,19.654H79.115c-10.81,0-19.653-8.844-19.653-19.654V59.461c0-10.81,8.844-19.654,19.653-19.654
		h78.616c0-21.619,17.688-39.308,39.308-39.308h117.923c21.619,0,39.308,17.688,39.308,39.308h78.615
		C443.694,39.808,452.538,48.652,452.538,59.461z"></path></g></svg>